<mxfile host="Electron" modified="2023-11-06T23:32:12.417Z" agent="Mozilla/5.0 (Windows NT 10.0; Win64; x64) AppleWebKit/537.36 (KHTML, like Gecko) draw.io/22.0.3 Chrome/114.0.5735.289 Electron/25.8.4 Safari/537.36" etag="IfY3uJpFbiGkvl7lVm_c" version="22.0.3" type="device">
  <diagram name="Page-1" id="mxMfrpkYQ83yEpC6DAqX">
    <mxGraphModel dx="2190" dy="1535" grid="1" gridSize="10" guides="1" tooltips="1" connect="1" arrows="1" fold="1" page="0" pageScale="1" pageWidth="850" pageHeight="1100" math="0" shadow="0">
      <root>
        <mxCell id="0" />
        <mxCell id="1" parent="0" />
        <mxCell id="lJAiufSAKZCCp05Ln1A2-12" value="vô nghiệm" style="shape=parallelogram;perimeter=parallelogramPerimeter;whiteSpace=wrap;html=1;fixedSize=1;" parent="1" vertex="1">
          <mxGeometry x="860" y="650" width="90" height="40" as="geometry" />
        </mxCell>
        <mxCell id="lJAiufSAKZCCp05Ln1A2-16" value="False" style="text;html=1;align=center;verticalAlign=middle;resizable=0;points=[];autosize=1;strokeColor=none;fillColor=none;" parent="1" vertex="1">
          <mxGeometry x="915" y="590" width="50" height="30" as="geometry" />
        </mxCell>
        <mxCell id="dEQE7VBByj2NU8e3j6Sz-1" value="START" style="ellipse;whiteSpace=wrap;html=1;" vertex="1" parent="1">
          <mxGeometry x="1200" y="100" width="120" height="80" as="geometry" />
        </mxCell>
        <mxCell id="dEQE7VBByj2NU8e3j6Sz-2" style="edgeStyle=orthogonalEdgeStyle;rounded=0;orthogonalLoop=1;jettySize=auto;html=1;exitX=0.5;exitY=1;exitDx=0;exitDy=0;" edge="1" parent="1">
          <mxGeometry relative="1" as="geometry">
            <mxPoint x="1260" y="180" as="sourcePoint" />
            <mxPoint x="1260" y="250" as="targetPoint" />
          </mxGeometry>
        </mxCell>
        <mxCell id="dEQE7VBByj2NU8e3j6Sz-3" value="a,b,c" style="shape=parallelogram;perimeter=parallelogramPerimeter;whiteSpace=wrap;html=1;fixedSize=1;" vertex="1" parent="1">
          <mxGeometry x="1200" y="250" width="120" height="60" as="geometry" />
        </mxCell>
        <mxCell id="dEQE7VBByj2NU8e3j6Sz-4" value="x= nghiệm" style="rounded=0;whiteSpace=wrap;html=1;" vertex="1" parent="1">
          <mxGeometry x="1200" y="380" width="120" height="60" as="geometry" />
        </mxCell>
        <mxCell id="dEQE7VBByj2NU8e3j6Sz-5" style="edgeStyle=orthogonalEdgeStyle;rounded=0;orthogonalLoop=1;jettySize=auto;html=1;exitX=0.5;exitY=1;exitDx=0;exitDy=0;" edge="1" parent="1">
          <mxGeometry relative="1" as="geometry">
            <mxPoint x="1259.5" y="310" as="sourcePoint" />
            <mxPoint x="1259.5" y="380" as="targetPoint" />
            <Array as="points">
              <mxPoint x="1259.5" y="340" />
              <mxPoint x="1259.5" y="340" />
            </Array>
          </mxGeometry>
        </mxCell>
        <mxCell id="dEQE7VBByj2NU8e3j6Sz-6" value="" style="endArrow=classic;html=1;rounded=0;" edge="1" parent="1">
          <mxGeometry width="50" height="50" relative="1" as="geometry">
            <mxPoint x="1259.5" y="440" as="sourcePoint" />
            <mxPoint x="1259.5" y="512" as="targetPoint" />
          </mxGeometry>
        </mxCell>
        <mxCell id="dEQE7VBByj2NU8e3j6Sz-7" value="a = 0" style="rhombus;whiteSpace=wrap;html=1;" vertex="1" parent="1">
          <mxGeometry x="1220" y="510" width="80" height="80" as="geometry" />
        </mxCell>
        <mxCell id="dEQE7VBByj2NU8e3j6Sz-8" value="" style="endArrow=classic;html=1;rounded=0;" edge="1" parent="1">
          <mxGeometry width="50" height="50" relative="1" as="geometry">
            <mxPoint x="1220" y="550" as="sourcePoint" />
            <mxPoint x="1130" y="550" as="targetPoint" />
          </mxGeometry>
        </mxCell>
        <mxCell id="dEQE7VBByj2NU8e3j6Sz-9" value="True" style="text;html=1;align=center;verticalAlign=middle;resizable=0;points=[];autosize=1;strokeColor=none;fillColor=none;" vertex="1" parent="1">
          <mxGeometry x="1145" y="518" width="50" height="30" as="geometry" />
        </mxCell>
        <mxCell id="dEQE7VBByj2NU8e3j6Sz-10" value="b=0" style="rhombus;whiteSpace=wrap;html=1;" vertex="1" parent="1">
          <mxGeometry x="1030" y="520" width="100" height="60" as="geometry" />
        </mxCell>
        <mxCell id="dEQE7VBByj2NU8e3j6Sz-11" value="c=0" style="rhombus;whiteSpace=wrap;html=1;" vertex="1" parent="1">
          <mxGeometry x="870" y="520" width="80" height="60" as="geometry" />
        </mxCell>
        <mxCell id="dEQE7VBByj2NU8e3j6Sz-12" value="" style="endArrow=classic;html=1;rounded=0;" edge="1" parent="1">
          <mxGeometry width="50" height="50" relative="1" as="geometry">
            <mxPoint x="1030" y="549" as="sourcePoint" />
            <mxPoint x="950" y="549" as="targetPoint" />
          </mxGeometry>
        </mxCell>
        <mxCell id="dEQE7VBByj2NU8e3j6Sz-13" value="True" style="text;html=1;align=center;verticalAlign=middle;resizable=0;points=[];autosize=1;strokeColor=none;fillColor=none;" vertex="1" parent="1">
          <mxGeometry x="965" y="517" width="50" height="30" as="geometry" />
        </mxCell>
        <mxCell id="dEQE7VBByj2NU8e3j6Sz-14" value="Vô số nghiệm" style="shape=parallelogram;perimeter=parallelogramPerimeter;whiteSpace=wrap;html=1;fixedSize=1;" vertex="1" parent="1">
          <mxGeometry x="690" y="530" width="100" height="40" as="geometry" />
        </mxCell>
        <mxCell id="dEQE7VBByj2NU8e3j6Sz-15" value="" style="endArrow=classic;html=1;rounded=0;exitX=0;exitY=0.5;exitDx=0;exitDy=0;" edge="1" parent="1" source="dEQE7VBByj2NU8e3j6Sz-11">
          <mxGeometry width="50" height="50" relative="1" as="geometry">
            <mxPoint x="850" y="552" as="sourcePoint" />
            <mxPoint x="770" y="552" as="targetPoint" />
          </mxGeometry>
        </mxCell>
        <mxCell id="dEQE7VBByj2NU8e3j6Sz-16" value="True" style="text;html=1;align=center;verticalAlign=middle;resizable=0;points=[];autosize=1;strokeColor=none;fillColor=none;" vertex="1" parent="1">
          <mxGeometry x="785" y="520" width="50" height="30" as="geometry" />
        </mxCell>
        <mxCell id="dEQE7VBByj2NU8e3j6Sz-18" value="" style="endArrow=classic;html=1;rounded=0;" edge="1" parent="1">
          <mxGeometry width="50" height="50" relative="1" as="geometry">
            <mxPoint x="909.5" y="580" as="sourcePoint" />
            <mxPoint x="909.5" y="650" as="targetPoint" />
          </mxGeometry>
        </mxCell>
        <mxCell id="dEQE7VBByj2NU8e3j6Sz-20" value="False" style="text;html=1;align=center;verticalAlign=middle;resizable=0;points=[];autosize=1;strokeColor=none;fillColor=none;" vertex="1" parent="1">
          <mxGeometry x="1085.5" y="590" width="50" height="30" as="geometry" />
        </mxCell>
        <mxCell id="dEQE7VBByj2NU8e3j6Sz-21" value="" style="endArrow=classic;html=1;rounded=0;" edge="1" parent="1">
          <mxGeometry width="50" height="50" relative="1" as="geometry">
            <mxPoint x="1080" y="580" as="sourcePoint" />
            <mxPoint x="1080" y="650" as="targetPoint" />
          </mxGeometry>
        </mxCell>
        <mxCell id="dEQE7VBByj2NU8e3j6Sz-22" value="False" style="text;html=1;align=center;verticalAlign=middle;resizable=0;points=[];autosize=1;strokeColor=none;fillColor=none;" vertex="1" parent="1">
          <mxGeometry x="1265.5" y="600" width="50" height="30" as="geometry" />
        </mxCell>
        <mxCell id="dEQE7VBByj2NU8e3j6Sz-23" value="" style="endArrow=classic;html=1;rounded=0;" edge="1" parent="1">
          <mxGeometry width="50" height="50" relative="1" as="geometry">
            <mxPoint x="1260" y="590" as="sourcePoint" />
            <mxPoint x="1260" y="660" as="targetPoint" />
          </mxGeometry>
        </mxCell>
        <mxCell id="dEQE7VBByj2NU8e3j6Sz-24" value="x= -b/a" style="shape=parallelogram;perimeter=parallelogramPerimeter;whiteSpace=wrap;html=1;fixedSize=1;" vertex="1" parent="1">
          <mxGeometry x="1030" y="650" width="90" height="40" as="geometry" />
        </mxCell>
        <mxCell id="dEQE7VBByj2NU8e3j6Sz-25" value="Delta=b^2-4*a*c" style="rounded=0;whiteSpace=wrap;html=1;" vertex="1" parent="1">
          <mxGeometry x="1200" y="660" width="120" height="50" as="geometry" />
        </mxCell>
        <mxCell id="dEQE7VBByj2NU8e3j6Sz-26" value="" style="endArrow=classic;html=1;rounded=0;" edge="1" parent="1">
          <mxGeometry width="50" height="50" relative="1" as="geometry">
            <mxPoint x="1320" y="680" as="sourcePoint" />
            <mxPoint x="1400" y="680" as="targetPoint" />
          </mxGeometry>
        </mxCell>
        <mxCell id="dEQE7VBByj2NU8e3j6Sz-27" value="Delta&amp;gt;0" style="rhombus;whiteSpace=wrap;html=1;" vertex="1" parent="1">
          <mxGeometry x="1400" y="650" width="80" height="67" as="geometry" />
        </mxCell>
        <mxCell id="dEQE7VBByj2NU8e3j6Sz-28" value="True" style="text;html=1;align=center;verticalAlign=middle;resizable=0;points=[];autosize=1;strokeColor=none;fillColor=none;" vertex="1" parent="1">
          <mxGeometry x="1430" y="730" width="50" height="30" as="geometry" />
        </mxCell>
        <mxCell id="dEQE7VBByj2NU8e3j6Sz-29" value="" style="endArrow=classic;html=1;rounded=0;" edge="1" parent="1">
          <mxGeometry width="50" height="50" relative="1" as="geometry">
            <mxPoint x="1440" y="722" as="sourcePoint" />
            <mxPoint x="1440" y="792" as="targetPoint" />
          </mxGeometry>
        </mxCell>
        <mxCell id="dEQE7VBByj2NU8e3j6Sz-30" value="pt có 2 nghiệm&lt;br&gt;&amp;nbsp;phân biệt&lt;br&gt;" style="shape=parallelogram;perimeter=parallelogramPerimeter;whiteSpace=wrap;html=1;fixedSize=1;" vertex="1" parent="1">
          <mxGeometry x="1380" y="790" width="120" height="60" as="geometry" />
        </mxCell>
        <mxCell id="dEQE7VBByj2NU8e3j6Sz-31" value="" style="endArrow=classic;html=1;rounded=0;" edge="1" parent="1">
          <mxGeometry width="50" height="50" relative="1" as="geometry">
            <mxPoint x="1439.5" y="850" as="sourcePoint" />
            <mxPoint x="1440" y="890" as="targetPoint" />
          </mxGeometry>
        </mxCell>
        <mxCell id="dEQE7VBByj2NU8e3j6Sz-32" value="" style="endArrow=classic;html=1;rounded=0;" edge="1" parent="1">
          <mxGeometry width="50" height="50" relative="1" as="geometry">
            <mxPoint x="1480" y="680" as="sourcePoint" />
            <mxPoint x="1560" y="680" as="targetPoint" />
          </mxGeometry>
        </mxCell>
        <mxCell id="dEQE7VBByj2NU8e3j6Sz-33" value="True" style="text;html=1;align=center;verticalAlign=middle;resizable=0;points=[];autosize=1;strokeColor=none;fillColor=none;" vertex="1" parent="1">
          <mxGeometry x="1590" y="730" width="50" height="30" as="geometry" />
        </mxCell>
        <mxCell id="dEQE7VBByj2NU8e3j6Sz-34" value="" style="endArrow=classic;html=1;rounded=0;" edge="1" parent="1">
          <mxGeometry width="50" height="50" relative="1" as="geometry">
            <mxPoint x="1600" y="722" as="sourcePoint" />
            <mxPoint x="1600" y="792" as="targetPoint" />
          </mxGeometry>
        </mxCell>
        <mxCell id="dEQE7VBByj2NU8e3j6Sz-35" value="" style="endArrow=classic;html=1;rounded=0;" edge="1" parent="1">
          <mxGeometry width="50" height="50" relative="1" as="geometry">
            <mxPoint x="1599.5" y="850" as="sourcePoint" />
            <mxPoint x="1599.5" y="920" as="targetPoint" />
          </mxGeometry>
        </mxCell>
        <mxCell id="dEQE7VBByj2NU8e3j6Sz-36" value="delta&amp;lt;0" style="rhombus;whiteSpace=wrap;html=1;" vertex="1" parent="1">
          <mxGeometry x="1560" y="655" width="80" height="60" as="geometry" />
        </mxCell>
        <mxCell id="dEQE7VBByj2NU8e3j6Sz-37" value="vô nghiệm" style="shape=parallelogram;perimeter=parallelogramPerimeter;whiteSpace=wrap;html=1;fixedSize=1;" vertex="1" parent="1">
          <mxGeometry x="1540" y="790" width="120" height="60" as="geometry" />
        </mxCell>
        <mxCell id="dEQE7VBByj2NU8e3j6Sz-38" value="" style="endArrow=classic;html=1;rounded=0;" edge="1" parent="1">
          <mxGeometry width="50" height="50" relative="1" as="geometry">
            <mxPoint x="1640" y="680" as="sourcePoint" />
            <mxPoint x="1720" y="680" as="targetPoint" />
          </mxGeometry>
        </mxCell>
        <mxCell id="dEQE7VBByj2NU8e3j6Sz-39" value="True" style="text;html=1;align=center;verticalAlign=middle;resizable=0;points=[];autosize=1;strokeColor=none;fillColor=none;" vertex="1" parent="1">
          <mxGeometry x="1750" y="730" width="50" height="30" as="geometry" />
        </mxCell>
        <mxCell id="dEQE7VBByj2NU8e3j6Sz-40" value="" style="endArrow=classic;html=1;rounded=0;" edge="1" parent="1">
          <mxGeometry width="50" height="50" relative="1" as="geometry">
            <mxPoint x="1760" y="722" as="sourcePoint" />
            <mxPoint x="1760" y="792" as="targetPoint" />
          </mxGeometry>
        </mxCell>
        <mxCell id="dEQE7VBByj2NU8e3j6Sz-41" value="" style="endArrow=classic;html=1;rounded=0;" edge="1" parent="1">
          <mxGeometry width="50" height="50" relative="1" as="geometry">
            <mxPoint x="1759.5" y="850" as="sourcePoint" />
            <mxPoint x="1760" y="960" as="targetPoint" />
          </mxGeometry>
        </mxCell>
        <mxCell id="dEQE7VBByj2NU8e3j6Sz-42" value="delta=0" style="rhombus;whiteSpace=wrap;html=1;" vertex="1" parent="1">
          <mxGeometry x="1720" y="655" width="80" height="67" as="geometry" />
        </mxCell>
        <mxCell id="dEQE7VBByj2NU8e3j6Sz-43" value="pt có nghiệm kép&lt;br&gt;-b/2*a" style="shape=parallelogram;perimeter=parallelogramPerimeter;whiteSpace=wrap;html=1;fixedSize=1;" vertex="1" parent="1">
          <mxGeometry x="1700" y="790" width="120" height="60" as="geometry" />
        </mxCell>
        <mxCell id="dEQE7VBByj2NU8e3j6Sz-44" value="False" style="text;html=1;align=center;verticalAlign=middle;resizable=0;points=[];autosize=1;strokeColor=none;fillColor=none;" vertex="1" parent="1">
          <mxGeometry x="1315" y="648" width="50" height="30" as="geometry" />
        </mxCell>
        <mxCell id="dEQE7VBByj2NU8e3j6Sz-45" value="&lt;span style=&quot;color: rgb(0, 0, 0); font-family: Helvetica; font-size: 12px; font-style: normal; font-variant-ligatures: normal; font-variant-caps: normal; font-weight: 400; letter-spacing: normal; orphans: 2; text-align: center; text-indent: 0px; text-transform: none; widows: 2; word-spacing: 0px; -webkit-text-stroke-width: 0px; background-color: rgb(255, 255, 255); text-decoration-thickness: initial; text-decoration-style: initial; text-decoration-color: initial; float: none; display: inline !important;&quot;&gt;False&lt;/span&gt;" style="text;whiteSpace=wrap;html=1;" vertex="1" parent="1">
          <mxGeometry x="1490" y="650" width="60" height="40" as="geometry" />
        </mxCell>
        <mxCell id="dEQE7VBByj2NU8e3j6Sz-46" value="&lt;span style=&quot;color: rgb(0, 0, 0); font-family: Helvetica; font-size: 12px; font-style: normal; font-variant-ligatures: normal; font-variant-caps: normal; font-weight: 400; letter-spacing: normal; orphans: 2; text-align: center; text-indent: 0px; text-transform: none; widows: 2; word-spacing: 0px; -webkit-text-stroke-width: 0px; background-color: rgb(255, 255, 255); text-decoration-thickness: initial; text-decoration-style: initial; text-decoration-color: initial; float: none; display: inline !important;&quot;&gt;False&lt;/span&gt;" style="text;whiteSpace=wrap;html=1;" vertex="1" parent="1">
          <mxGeometry x="1650" y="650" width="60" height="40" as="geometry" />
        </mxCell>
        <mxCell id="dEQE7VBByj2NU8e3j6Sz-47" value="" style="endArrow=classic;html=1;rounded=0;exitX=0;exitY=0.5;exitDx=0;exitDy=0;" edge="1" parent="1">
          <mxGeometry width="50" height="50" relative="1" as="geometry">
            <mxPoint x="1440" y="890" as="sourcePoint" />
            <mxPoint x="1290" y="892" as="targetPoint" />
          </mxGeometry>
        </mxCell>
        <mxCell id="dEQE7VBByj2NU8e3j6Sz-48" value="" style="endArrow=classic;html=1;rounded=0;exitX=0;exitY=0.5;exitDx=0;exitDy=0;" edge="1" parent="1">
          <mxGeometry width="50" height="50" relative="1" as="geometry">
            <mxPoint x="1600" y="920" as="sourcePoint" />
            <mxPoint x="1290" y="922" as="targetPoint" />
          </mxGeometry>
        </mxCell>
        <mxCell id="dEQE7VBByj2NU8e3j6Sz-49" value="" style="endArrow=classic;html=1;rounded=0;exitX=0;exitY=0.5;exitDx=0;exitDy=0;" edge="1" parent="1">
          <mxGeometry width="50" height="50" relative="1" as="geometry">
            <mxPoint x="1760" y="960" as="sourcePoint" />
            <mxPoint x="1290" y="962" as="targetPoint" />
          </mxGeometry>
        </mxCell>
        <mxCell id="dEQE7VBByj2NU8e3j6Sz-50" value="" style="endArrow=classic;html=1;rounded=0;" edge="1" parent="1">
          <mxGeometry width="50" height="50" relative="1" as="geometry">
            <mxPoint x="1074.58" y="690" as="sourcePoint" />
            <mxPoint x="1074.29" y="880" as="targetPoint" />
          </mxGeometry>
        </mxCell>
        <mxCell id="dEQE7VBByj2NU8e3j6Sz-51" value="" style="endArrow=classic;html=1;rounded=0;" edge="1" parent="1">
          <mxGeometry width="50" height="50" relative="1" as="geometry">
            <mxPoint x="899.8699999999999" y="690" as="sourcePoint" />
            <mxPoint x="899.29" y="920" as="targetPoint" />
          </mxGeometry>
        </mxCell>
        <mxCell id="dEQE7VBByj2NU8e3j6Sz-52" value="" style="endArrow=classic;html=1;rounded=0;" edge="1" parent="1">
          <mxGeometry width="50" height="50" relative="1" as="geometry">
            <mxPoint x="739.8699999999999" y="570" as="sourcePoint" />
            <mxPoint x="739" y="960" as="targetPoint" />
          </mxGeometry>
        </mxCell>
        <mxCell id="dEQE7VBByj2NU8e3j6Sz-53" value="" style="endArrow=classic;html=1;rounded=0;" edge="1" parent="1">
          <mxGeometry width="50" height="50" relative="1" as="geometry">
            <mxPoint x="900" y="920" as="sourcePoint" />
            <mxPoint x="1110" y="920" as="targetPoint" />
          </mxGeometry>
        </mxCell>
        <mxCell id="dEQE7VBByj2NU8e3j6Sz-54" value="" style="endArrow=classic;html=1;rounded=0;" edge="1" parent="1">
          <mxGeometry width="50" height="50" relative="1" as="geometry">
            <mxPoint x="740" y="960" as="sourcePoint" />
            <mxPoint x="1110" y="960" as="targetPoint" />
          </mxGeometry>
        </mxCell>
        <mxCell id="dEQE7VBByj2NU8e3j6Sz-55" value="NGHIỆM" style="shape=parallelogram;perimeter=parallelogramPerimeter;whiteSpace=wrap;html=1;fixedSize=1;" vertex="1" parent="1">
          <mxGeometry x="1120" y="880" width="160" height="80" as="geometry" />
        </mxCell>
        <mxCell id="dEQE7VBByj2NU8e3j6Sz-56" value="" style="endArrow=classic;html=1;rounded=0;" edge="1" parent="1">
          <mxGeometry width="50" height="50" relative="1" as="geometry">
            <mxPoint x="1075.5" y="880" as="sourcePoint" />
            <mxPoint x="1135.5" y="880" as="targetPoint" />
          </mxGeometry>
        </mxCell>
        <mxCell id="dEQE7VBByj2NU8e3j6Sz-57" value="" style="endArrow=classic;html=1;rounded=0;" edge="1" parent="1">
          <mxGeometry width="50" height="50" relative="1" as="geometry">
            <mxPoint x="1195" y="960" as="sourcePoint" />
            <mxPoint x="1195" y="1060" as="targetPoint" />
          </mxGeometry>
        </mxCell>
        <mxCell id="dEQE7VBByj2NU8e3j6Sz-58" value="End" style="ellipse;whiteSpace=wrap;html=1;" vertex="1" parent="1">
          <mxGeometry x="1135.5" y="1060" width="120" height="80" as="geometry" />
        </mxCell>
      </root>
    </mxGraphModel>
  </diagram>
</mxfile>
